<svg xmlns="http://www.w3.org/2000/svg" xmlns:xlink="http://www.w3.org/1999/xlink" width="500" zoomAndPan="magnify" viewBox="0 0 375 374.999991" height="500" preserveAspectRatio="xMidYMid meet" version="1.0"><defs><clipPath id="83c0773ee5"><path d="M 25 0 L 350.386719 0 L 350.386719 375 L 25 375 Z M 25 0 " clip-rule="nonzero"/></clipPath><clipPath id="9ff9cdb7f8"><path d="M 49.601562 59.351562 L 316.601562 59.351562 L 316.601562 326 L 49.601562 326 Z M 49.601562 59.351562 " clip-rule="nonzero"/></clipPath><clipPath id="225d991d76"><path d="M 143 164 L 168 164 L 168 221 L 143 221 Z M 143 164 " clip-rule="nonzero"/></clipPath><clipPath id="3315095a26"><path d="M 140.050781 165.78125 L 162.398438 163.175781 L 168.996094 219.792969 L 146.648438 222.398438 Z M 140.050781 165.78125 " clip-rule="nonzero"/></clipPath><clipPath id="cdf1da320a"><path d="M 140.050781 165.78125 L 162.398438 163.175781 L 168.996094 219.792969 L 146.648438 222.398438 Z M 140.050781 165.78125 " clip-rule="nonzero"/></clipPath><clipPath id="0fab53dbc9"><path d="M 140.050781 165.78125 L 162.398438 163.175781 L 168.996094 219.792969 L 146.648438 222.398438 Z M 140.050781 165.78125 " clip-rule="nonzero"/></clipPath></defs><g clip-path="url(#83c0773ee5)"><path fill="#000000" d="M 350.15625 281.273438 L 350.15625 93.757812 L 187.621094 0 L 25.085938 93.757812 L 25.085938 281.273438 L 187.621094 375.035156 Z M 350.15625 281.273438 " fill-opacity="1" fill-rule="nonzero"/></g><g clip-path="url(#9ff9cdb7f8)"><path fill="#ffffff" d="M 309.394531 94.78125 L 298.777344 88.589844 C 296.796875 87.433594 294.183594 86.855469 291.570312 86.855469 C 288.960938 86.855469 286.347656 87.433594 284.363281 88.589844 L 273.746094 94.78125 C 269.785156 97.09375 266.539062 102.742188 266.539062 107.328125 L 266.539062 119.847656 C 266.539062 121.210938 266.855469 122.660156 267.359375 124.097656 L 197.753906 164.132812 C 196.824219 163.0625 195.792969 162.140625 194.695312 161.492188 L 163.167969 142.863281 C 162.496094 142.464844 161.734375 142.160156 160.941406 141.898438 L 160.941406 112.667969 C 162.039062 112.382812 163.078125 111.992188 163.976562 111.46875 L 174.59375 105.277344 C 178.558594 102.964844 181.800781 97.320312 181.800781 92.730469 L 181.800781 80.210938 C 181.800781 75.625 178.558594 69.976562 174.59375 67.664062 L 163.976562 61.472656 C 161.992188 60.316406 159.378906 59.738281 156.769531 59.738281 C 154.15625 59.738281 151.542969 60.316406 149.5625 61.472656 L 138.945312 67.664062 C 134.980469 69.976562 131.738281 75.625 131.738281 80.210938 L 131.738281 92.730469 C 131.738281 97.320312 134.980469 102.964844 138.945312 105.277344 L 149.5625 111.46875 C 150.460938 111.992188 151.5 112.382812 152.597656 112.667969 L 152.597656 141.472656 C 151.210938 141.761719 149.90625 142.210938 148.804688 142.863281 L 117.277344 161.492188 C 113.328125 163.824219 110.09375 169.488281 110.09375 174.078125 L 110.09375 211.628906 C 110.09375 212.503906 110.246094 213.417969 110.460938 214.34375 L 94.90625 223.289062 C 94.140625 222.515625 93.324219 221.832031 92.457031 221.328125 L 81.839844 215.136719 C 79.859375 213.980469 77.246094 213.402344 74.632812 213.402344 C 72.019531 213.402344 69.410156 213.980469 67.425781 215.136719 L 56.808594 221.328125 C 52.847656 223.640625 49.601562 229.285156 49.601562 233.875 L 49.601562 246.394531 C 49.601562 250.984375 52.847656 256.628906 56.808594 258.941406 L 67.425781 265.132812 C 69.410156 266.289062 72.019531 266.867188 74.632812 266.867188 C 77.246094 266.867188 79.859375 266.289062 81.839844 265.132812 L 92.457031 258.941406 C 96.421875 256.628906 99.664062 250.984375 99.664062 246.394531 L 99.664062 233.875 C 99.664062 232.785156 99.472656 231.632812 99.136719 230.484375 L 114.347656 221.734375 C 115.246094 222.738281 116.234375 223.597656 117.277344 224.214844 L 148.804688 242.84375 C 149.90625 243.496094 151.210938 243.945312 152.597656 244.234375 L 152.597656 273.039062 C 151.5 273.324219 150.460938 273.714844 149.5625 274.238281 L 138.945312 280.429688 C 134.980469 282.742188 131.738281 288.386719 131.738281 292.976562 L 131.738281 305.492188 C 131.738281 310.082031 134.980469 315.730469 138.945312 318.042969 L 149.5625 324.234375 C 151.542969 325.390625 154.15625 325.96875 156.769531 325.96875 C 159.378906 325.96875 161.992188 325.390625 163.976562 324.234375 L 174.59375 318.042969 C 178.558594 315.730469 181.800781 310.082031 181.800781 305.492188 L 181.800781 292.976562 C 181.800781 288.386719 178.558594 282.742188 174.59375 280.429688 L 163.976562 274.238281 C 163.078125 273.714844 162.039062 273.324219 160.941406 273.039062 L 160.941406 243.808594 C 161.734375 243.546875 162.496094 243.242188 163.167969 242.84375 L 194.695312 224.214844 C 195.550781 223.710938 196.363281 223.023438 197.125 222.25 L 264.78125 250.804688 C 264.589844 251.667969 264.453125 252.527344 264.453125 253.34375 L 264.453125 265.863281 C 264.453125 270.453125 267.699219 276.097656 271.660156 278.410156 L 282.277344 284.601562 C 284.261719 285.757812 286.875 286.335938 289.484375 286.335938 C 292.097656 286.335938 294.710938 285.757812 296.691406 284.601562 L 307.308594 278.410156 C 311.273438 276.097656 314.515625 270.453125 314.515625 265.863281 L 314.515625 253.34375 C 314.515625 248.757812 311.273438 243.109375 307.308594 240.796875 L 296.691406 234.605469 C 294.710938 233.449219 292.097656 232.871094 289.484375 232.871094 C 286.875 232.871094 284.261719 233.449219 282.277344 234.605469 L 271.660156 240.796875 C 270.578125 241.429688 269.554688 242.328125 268.628906 243.371094 L 201.359375 214.980469 C 201.683594 213.84375 201.875 212.707031 201.875 211.628906 L 201.875 174.078125 C 201.875 173.269531 201.746094 172.421875 201.558594 171.574219 L 271.972656 131.070312 C 272.542969 131.574219 273.132812 132.035156 273.746094 132.394531 L 284.363281 138.585938 C 286.347656 139.742188 288.960938 140.320312 291.570312 140.320312 C 294.183594 140.320312 296.796875 139.742188 298.777344 138.585938 L 309.394531 132.394531 C 313.359375 130.082031 316.601562 124.4375 316.601562 119.847656 L 316.601562 107.328125 C 316.601562 102.742188 313.359375 97.09375 309.394531 94.78125 Z M 309.394531 94.78125 " fill-opacity="1" fill-rule="nonzero"/></g><g clip-path="url(#225d991d76)"><g clip-path="url(#3315095a26)"><g clip-path="url(#cdf1da320a)"><g clip-path="url(#0fab53dbc9)"><path fill="#000000" d="M 153.269531 177.238281 C 156.773438 176.828125 159.441406 173.25 159.027344 169.515625 C 158.660156 166.371094 156.171875 164.28125 153.164062 164.632812 C 149.609375 165.046875 147.023438 168.53125 147.460938 172.351562 C 147.824219 175.59375 150.207031 177.59375 153.269531 177.238281 Z M 163.539062 204.21875 L 156.574219 212.074219 L 156.191406 211.90625 C 156.65625 208.59375 157.101562 205.273438 157.574219 201.980469 C 158.335938 196.960938 159.253906 191.96875 159.917969 186.933594 C 160.277344 184.203125 158.472656 182.503906 155.722656 182.96875 C 154.074219 183.25 152.304688 183.773438 151.078125 184.78125 C 149.460938 186.140625 147.921875 187.582031 146.464844 189.109375 L 146.375 189.203125 L 143.191406 192.597656 L 145.652344 196.765625 L 150.582031 191.738281 C 150.074219 196.429688 149.246094 200.917969 148.636719 205.4375 C 148.179688 208.695312 147.910156 212.011719 147.785156 215.308594 C 147.628906 219.453125 150.921875 221.539062 154.707031 219.765625 C 155.929688 219.242188 157.019531 218.523438 157.976562 217.609375 C 161.210938 214.292969 164.320312 210.851562 167.554688 207.367188 Z M 163.539062 204.21875 " fill-opacity="1" fill-rule="nonzero"/></g></g></g></g></svg>